# xmcd CD database file
#
# Track frame offsets:
#	182
#	25412
#	42662
#	59200
#	77080
#	87580
#	101410
#	114340
#	130832
#	145037
#	160562
#
# Disc length: 2617 seconds
#
# Revision: 3
# Processed by: cddbd v1.5.2PL0 Copyright (c) Steve Scherf et al.
# Submitted via: CDex 1.51
#
DISCID=920a370b
DTITLE=White, Tony Joe - Tony Joe
DYEAR=1970
DGENRE=Swamp
TTITLE0=Stud-Spider
TTITLE1=High Sheriff of Calhoun Parrish
TTITLE2=Widow Wimberly
TTITLE3=Conjure Woman
TTITLE4=Save Your Sugar For Me
TTITLE5=Groupy Girl
TTITLE6=Hard To Handle
TTITLE7=What Does It Take (To Win Your Love)
TTITLE8=My Friend
TTITLE9=Stockholm Blues
TTITLE10=Boom Boom
EXTD=YEAR: 1970
EXTT0=
EXTT1=
EXTT2=
EXTT3=
EXTT4=
EXTT5=
EXTT6=
EXTT7=
EXTT8=
EXTT9=
EXTT10=
PLAYORDER=
